%TF.GenerationSoftware,KiCad,Pcbnew,9.0.2*%
%TF.CreationDate,2025-11-14T19:19:04-06:00*%
%TF.ProjectId,Computadora LANIAKEA,436f6d70-7574-4616-946f-7261204c414e,rev?*%
%TF.SameCoordinates,Original*%
%TF.FileFunction,Soldermask,Top*%
%TF.FilePolarity,Negative*%
%FSLAX46Y46*%
G04 Gerber Fmt 4.6, Leading zero omitted, Abs format (unit mm)*
G04 Created by KiCad (PCBNEW 9.0.2) date 2025-11-14 19:19:04*
%MOMM*%
%LPD*%
G01*
G04 APERTURE LIST*
G04 Aperture macros list*
%AMRoundRect*
0 Rectangle with rounded corners*
0 $1 Rounding radius*
0 $2 $3 $4 $5 $6 $7 $8 $9 X,Y pos of 4 corners*
0 Add a 4 corners polygon primitive as box body*
4,1,4,$2,$3,$4,$5,$6,$7,$8,$9,$2,$3,0*
0 Add four circle primitives for the rounded corners*
1,1,$1+$1,$2,$3*
1,1,$1+$1,$4,$5*
1,1,$1+$1,$6,$7*
1,1,$1+$1,$8,$9*
0 Add four rect primitives between the rounded corners*
20,1,$1+$1,$2,$3,$4,$5,0*
20,1,$1+$1,$4,$5,$6,$7,0*
20,1,$1+$1,$6,$7,$8,$9,0*
20,1,$1+$1,$8,$9,$2,$3,0*%
G04 Aperture macros list end*
%ADD10C,0.150000*%
%ADD11C,2.800000*%
%ADD12RoundRect,0.250001X-1.149999X-1.149999X1.149999X-1.149999X1.149999X1.149999X-1.149999X1.149999X0*%
%ADD13C,1.400000*%
%ADD14C,1.800000*%
%ADD15R,1.800000X1.800000*%
%ADD16C,1.600000*%
%ADD17RoundRect,0.250000X0.550000X-0.550000X0.550000X0.550000X-0.550000X0.550000X-0.550000X-0.550000X0*%
%ADD18O,1.905000X2.000000*%
%ADD19R,1.905000X2.000000*%
%ADD20C,1.524000*%
%ADD21C,4.400000*%
%ADD22C,1.500000*%
%ADD23RoundRect,0.250000X0.500000X0.500000X-0.500000X0.500000X-0.500000X-0.500000X0.500000X-0.500000X0*%
%ADD24R,1.500000X1.500000*%
%ADD25RoundRect,0.102000X0.504000X-0.504000X0.504000X0.504000X-0.504000X0.504000X-0.504000X-0.504000X0*%
%ADD26C,1.212000*%
%ADD27RoundRect,0.102000X0.900000X-0.900000X0.900000X0.900000X-0.900000X0.900000X-0.900000X-0.900000X0*%
%ADD28C,2.004000*%
%ADD29C,1.750000*%
%ADD30C,1.700000*%
%ADD31RoundRect,0.250001X-0.949999X0.949999X-0.949999X-0.949999X0.949999X-0.949999X0.949999X0.949999X0*%
%ADD32C,2.400000*%
%ADD33RoundRect,0.250000X0.512000X0.512000X-0.512000X0.512000X-0.512000X-0.512000X0.512000X-0.512000X0*%
%ADD34R,2.000000X2.000000*%
%ADD35C,2.000000*%
%ADD36RoundRect,0.250001X1.149999X-1.149999X1.149999X1.149999X-1.149999X1.149999X-1.149999X-1.149999X0*%
%ADD37RoundRect,0.102000X0.754000X0.754000X-0.754000X0.754000X-0.754000X-0.754000X0.754000X-0.754000X0*%
G04 APERTURE END LIST*
D10*
X153294411Y-80717717D02*
X153031944Y-80342764D01*
X152844467Y-80717717D02*
X152844467Y-79930315D01*
X152844467Y-79930315D02*
X153144430Y-79930315D01*
X153144430Y-79930315D02*
X153219421Y-79967810D01*
X153219421Y-79967810D02*
X153256916Y-80005306D01*
X153256916Y-80005306D02*
X153294411Y-80080296D01*
X153294411Y-80080296D02*
X153294411Y-80192782D01*
X153294411Y-80192782D02*
X153256916Y-80267773D01*
X153256916Y-80267773D02*
X153219421Y-80305268D01*
X153219421Y-80305268D02*
X153144430Y-80342764D01*
X153144430Y-80342764D02*
X152844467Y-80342764D01*
X153594374Y-80492745D02*
X153969327Y-80492745D01*
X153519383Y-80717717D02*
X153781851Y-79930315D01*
X153781851Y-79930315D02*
X154044318Y-80717717D01*
X154269290Y-80680222D02*
X154381776Y-80717717D01*
X154381776Y-80717717D02*
X154569253Y-80717717D01*
X154569253Y-80717717D02*
X154644243Y-80680222D01*
X154644243Y-80680222D02*
X154681739Y-80642726D01*
X154681739Y-80642726D02*
X154719234Y-80567736D01*
X154719234Y-80567736D02*
X154719234Y-80492745D01*
X154719234Y-80492745D02*
X154681739Y-80417754D01*
X154681739Y-80417754D02*
X154644243Y-80380259D01*
X154644243Y-80380259D02*
X154569253Y-80342764D01*
X154569253Y-80342764D02*
X154419271Y-80305268D01*
X154419271Y-80305268D02*
X154344281Y-80267773D01*
X154344281Y-80267773D02*
X154306785Y-80230278D01*
X154306785Y-80230278D02*
X154269290Y-80155287D01*
X154269290Y-80155287D02*
X154269290Y-80080296D01*
X154269290Y-80080296D02*
X154306785Y-80005306D01*
X154306785Y-80005306D02*
X154344281Y-79967810D01*
X154344281Y-79967810D02*
X154419271Y-79930315D01*
X154419271Y-79930315D02*
X154606748Y-79930315D01*
X154606748Y-79930315D02*
X154719234Y-79967810D01*
X155056692Y-80717717D02*
X155056692Y-79930315D01*
X155056692Y-79930315D02*
X155356655Y-79930315D01*
X155356655Y-79930315D02*
X155431646Y-79967810D01*
X155431646Y-79967810D02*
X155469141Y-80005306D01*
X155469141Y-80005306D02*
X155506636Y-80080296D01*
X155506636Y-80080296D02*
X155506636Y-80192782D01*
X155506636Y-80192782D02*
X155469141Y-80267773D01*
X155469141Y-80267773D02*
X155431646Y-80305268D01*
X155431646Y-80305268D02*
X155356655Y-80342764D01*
X155356655Y-80342764D02*
X155056692Y-80342764D01*
X156106562Y-80305268D02*
X156219048Y-80342764D01*
X156219048Y-80342764D02*
X156256543Y-80380259D01*
X156256543Y-80380259D02*
X156294038Y-80455250D01*
X156294038Y-80455250D02*
X156294038Y-80567736D01*
X156294038Y-80567736D02*
X156256543Y-80642726D01*
X156256543Y-80642726D02*
X156219048Y-80680222D01*
X156219048Y-80680222D02*
X156144057Y-80717717D01*
X156144057Y-80717717D02*
X155844094Y-80717717D01*
X155844094Y-80717717D02*
X155844094Y-79930315D01*
X155844094Y-79930315D02*
X156106562Y-79930315D01*
X156106562Y-79930315D02*
X156181552Y-79967810D01*
X156181552Y-79967810D02*
X156219048Y-80005306D01*
X156219048Y-80005306D02*
X156256543Y-80080296D01*
X156256543Y-80080296D02*
X156256543Y-80155287D01*
X156256543Y-80155287D02*
X156219048Y-80230278D01*
X156219048Y-80230278D02*
X156181552Y-80267773D01*
X156181552Y-80267773D02*
X156106562Y-80305268D01*
X156106562Y-80305268D02*
X155844094Y-80305268D01*
X156631496Y-80305268D02*
X156893964Y-80305268D01*
X157006450Y-80717717D02*
X156631496Y-80717717D01*
X156631496Y-80717717D02*
X156631496Y-79930315D01*
X156631496Y-79930315D02*
X157006450Y-79930315D01*
X157793851Y-80717717D02*
X157531384Y-80342764D01*
X157343907Y-80717717D02*
X157343907Y-79930315D01*
X157343907Y-79930315D02*
X157643870Y-79930315D01*
X157643870Y-79930315D02*
X157718861Y-79967810D01*
X157718861Y-79967810D02*
X157756356Y-80005306D01*
X157756356Y-80005306D02*
X157793851Y-80080296D01*
X157793851Y-80080296D02*
X157793851Y-80192782D01*
X157793851Y-80192782D02*
X157756356Y-80267773D01*
X157756356Y-80267773D02*
X157718861Y-80305268D01*
X157718861Y-80305268D02*
X157643870Y-80342764D01*
X157643870Y-80342764D02*
X157343907Y-80342764D01*
X158581253Y-80717717D02*
X158318786Y-80342764D01*
X158131309Y-80717717D02*
X158131309Y-79930315D01*
X158131309Y-79930315D02*
X158431272Y-79930315D01*
X158431272Y-79930315D02*
X158506263Y-79967810D01*
X158506263Y-79967810D02*
X158543758Y-80005306D01*
X158543758Y-80005306D02*
X158581253Y-80080296D01*
X158581253Y-80080296D02*
X158581253Y-80192782D01*
X158581253Y-80192782D02*
X158543758Y-80267773D01*
X158543758Y-80267773D02*
X158506263Y-80305268D01*
X158506263Y-80305268D02*
X158431272Y-80342764D01*
X158431272Y-80342764D02*
X158131309Y-80342764D01*
X159068693Y-80342764D02*
X159068693Y-80717717D01*
X158806225Y-79930315D02*
X159068693Y-80342764D01*
X159068693Y-80342764D02*
X159331160Y-79930315D01*
X159406151Y-80792708D02*
X160006076Y-80792708D01*
X160193552Y-80717717D02*
X160193552Y-79930315D01*
X160193552Y-79930315D02*
X160493515Y-79930315D01*
X160493515Y-79930315D02*
X160568506Y-79967810D01*
X160568506Y-79967810D02*
X160606001Y-80005306D01*
X160606001Y-80005306D02*
X160643496Y-80080296D01*
X160643496Y-80080296D02*
X160643496Y-80192782D01*
X160643496Y-80192782D02*
X160606001Y-80267773D01*
X160606001Y-80267773D02*
X160568506Y-80305268D01*
X160568506Y-80305268D02*
X160493515Y-80342764D01*
X160493515Y-80342764D02*
X160193552Y-80342764D01*
X160980954Y-80717717D02*
X160980954Y-79930315D01*
X161168431Y-80792708D02*
X161768356Y-80792708D01*
X161955832Y-80717717D02*
X161955832Y-79930315D01*
X161955832Y-79930315D02*
X162255795Y-79930315D01*
X162255795Y-79930315D02*
X162330786Y-79967810D01*
X162330786Y-79967810D02*
X162368281Y-80005306D01*
X162368281Y-80005306D02*
X162405776Y-80080296D01*
X162405776Y-80080296D02*
X162405776Y-80192782D01*
X162405776Y-80192782D02*
X162368281Y-80267773D01*
X162368281Y-80267773D02*
X162330786Y-80305268D01*
X162330786Y-80305268D02*
X162255795Y-80342764D01*
X162255795Y-80342764D02*
X161955832Y-80342764D01*
X162743234Y-80717717D02*
X162743234Y-79930315D01*
X163568131Y-80642726D02*
X163530636Y-80680222D01*
X163530636Y-80680222D02*
X163418150Y-80717717D01*
X163418150Y-80717717D02*
X163343159Y-80717717D01*
X163343159Y-80717717D02*
X163230673Y-80680222D01*
X163230673Y-80680222D02*
X163155683Y-80605231D01*
X163155683Y-80605231D02*
X163118187Y-80530240D01*
X163118187Y-80530240D02*
X163080692Y-80380259D01*
X163080692Y-80380259D02*
X163080692Y-80267773D01*
X163080692Y-80267773D02*
X163118187Y-80117792D01*
X163118187Y-80117792D02*
X163155683Y-80042801D01*
X163155683Y-80042801D02*
X163230673Y-79967810D01*
X163230673Y-79967810D02*
X163343159Y-79930315D01*
X163343159Y-79930315D02*
X163418150Y-79930315D01*
X163418150Y-79930315D02*
X163530636Y-79967810D01*
X163530636Y-79967810D02*
X163568131Y-80005306D01*
X164055571Y-79930315D02*
X164205552Y-79930315D01*
X164205552Y-79930315D02*
X164280543Y-79967810D01*
X164280543Y-79967810D02*
X164355533Y-80042801D01*
X164355533Y-80042801D02*
X164393029Y-80192782D01*
X164393029Y-80192782D02*
X164393029Y-80455250D01*
X164393029Y-80455250D02*
X164355533Y-80605231D01*
X164355533Y-80605231D02*
X164280543Y-80680222D01*
X164280543Y-80680222D02*
X164205552Y-80717717D01*
X164205552Y-80717717D02*
X164055571Y-80717717D01*
X164055571Y-80717717D02*
X163980580Y-80680222D01*
X163980580Y-80680222D02*
X163905589Y-80605231D01*
X163905589Y-80605231D02*
X163868094Y-80455250D01*
X163868094Y-80455250D02*
X163868094Y-80192782D01*
X163868094Y-80192782D02*
X163905589Y-80042801D01*
X163905589Y-80042801D02*
X163980580Y-79967810D01*
X163980580Y-79967810D02*
X164055571Y-79930315D01*
D11*
%TO.C,TC3*%
X202460000Y-127000000D03*
D12*
X197460000Y-127000000D03*
%TD*%
D13*
%TO.C,R6*%
X192660000Y-120540000D03*
X192660000Y-112920000D03*
%TD*%
D14*
%TO.C,D6*%
X188700000Y-127761250D03*
D15*
X186160000Y-127761250D03*
%TD*%
D16*
%TO.C,D4*%
X188700000Y-114951250D03*
D17*
X188700000Y-122571250D03*
%TD*%
D18*
%TO.C,Q3*%
X202540000Y-119000000D03*
X200000000Y-119000000D03*
D19*
X197460000Y-119000000D03*
%TD*%
D13*
%TO.C,R7*%
X192660000Y-130340000D03*
X192660000Y-122720000D03*
%TD*%
D19*
%TO.C,Q4*%
X153345000Y-119045000D03*
D18*
X155885000Y-119045000D03*
X158425000Y-119045000D03*
%TD*%
D15*
%TO.C,D2*%
X164160000Y-128080000D03*
D14*
X166700000Y-128080000D03*
%TD*%
D16*
%TO.C,C2*%
X231250000Y-121581250D03*
X238750000Y-121581250D03*
%TD*%
D20*
%TO.C,U5*%
X225413000Y-75156250D03*
X222873000Y-75156250D03*
X220333000Y-75156250D03*
X217793000Y-75156250D03*
X215253000Y-75156250D03*
X212713000Y-75156250D03*
X210173000Y-75156250D03*
X207633000Y-75156250D03*
%TD*%
%TO.C,INA226*%
X91100000Y-99720000D03*
X91100000Y-107340000D03*
X91100000Y-92100000D03*
X91100000Y-94640000D03*
X91100000Y-104800000D03*
X91100000Y-102260000D03*
X91100000Y-97180000D03*
X91100000Y-109880000D03*
%TD*%
D19*
%TO.C,Q2*%
X175460000Y-119000000D03*
D18*
X178000000Y-119000000D03*
X180540000Y-119000000D03*
%TD*%
D21*
%TO.C,REF\u002A\u002A*%
X84000000Y-54000000D03*
%TD*%
%TO.C,REF\u002A\u002A*%
X84000000Y-136000000D03*
%TD*%
D19*
%TO.C,Q1*%
X219440000Y-118998750D03*
D18*
X221980000Y-118998750D03*
X224520000Y-118998750D03*
%TD*%
D22*
%TO.C,RYS1*%
X140950000Y-89001250D03*
D23*
X140950000Y-91541250D03*
D22*
X140950000Y-94081250D03*
X140950000Y-96621250D03*
D24*
X140950000Y-99161250D03*
D22*
X140950000Y-101701250D03*
D23*
X111950000Y-101701250D03*
X111950000Y-99161250D03*
X111950000Y-96601250D03*
X111950000Y-94081250D03*
X111950000Y-91541250D03*
X111950000Y-89001250D03*
%TD*%
D25*
%TO.C,U3*%
X114000000Y-137000000D03*
D26*
X116000000Y-137000000D03*
X118000000Y-137000000D03*
X120000000Y-137000000D03*
X122000000Y-137000000D03*
X124000000Y-137000000D03*
X126000000Y-137000000D03*
X128000000Y-137000000D03*
X130000000Y-137000000D03*
X132000000Y-137000000D03*
X132000000Y-115000000D03*
X130000000Y-115000000D03*
X128000000Y-115000000D03*
X126000000Y-115000000D03*
X124000000Y-115000000D03*
X122000000Y-115000000D03*
X120000000Y-115000000D03*
X118000000Y-115000000D03*
X116000000Y-115000000D03*
X114000000Y-115000000D03*
%TD*%
D15*
%TO.C,D1*%
X208160000Y-127761250D03*
D14*
X210700000Y-127761250D03*
%TD*%
D13*
%TO.C,R8*%
X148545000Y-112995000D03*
X148545000Y-120615000D03*
%TD*%
D27*
%TO.C,U1*%
X210620000Y-69211250D03*
D28*
X213160000Y-69211250D03*
X215700000Y-69211250D03*
X218240000Y-69211250D03*
X220780000Y-69211250D03*
X223320000Y-69211250D03*
X225860000Y-69211250D03*
X228400000Y-69211250D03*
X230940000Y-69211250D03*
X233480000Y-69211250D03*
X236020000Y-69211250D03*
X238560000Y-69211250D03*
X241100000Y-69211250D03*
X243640000Y-69211250D03*
X246180000Y-69211250D03*
X246180000Y-53971250D03*
X243640000Y-53971250D03*
X241100000Y-53971250D03*
X238560000Y-53971250D03*
X236020000Y-53971250D03*
X233480000Y-53971250D03*
X230940000Y-53971250D03*
X228400000Y-53971250D03*
X225860000Y-53971250D03*
X223320000Y-53971250D03*
X220780000Y-53971250D03*
X218240000Y-53971250D03*
X215700000Y-53971250D03*
X213160000Y-53971250D03*
X210620000Y-53971250D03*
%TD*%
D13*
%TO.C,R2*%
X170660000Y-122720000D03*
X170660000Y-130340000D03*
%TD*%
%TO.C,R1*%
X214640000Y-122718750D03*
X214640000Y-130338750D03*
%TD*%
D12*
%TO.C,TC5*%
X153345000Y-127045000D03*
D11*
X158345000Y-127045000D03*
%TD*%
D21*
%TO.C,REF\u002A\u002A*%
X256000000Y-136000000D03*
%TD*%
D17*
%TO.C,D5*%
X165700000Y-122571250D03*
D16*
X165700000Y-114951250D03*
%TD*%
D29*
%TO.C,MS2*%
X241165100Y-95344550D03*
X248785100Y-95344550D03*
X236085100Y-95344550D03*
X246245100Y-95344550D03*
X243705100Y-95344550D03*
X238625100Y-95344550D03*
X251325100Y-95344550D03*
%TD*%
D16*
%TO.C,C3*%
X231250000Y-125500000D03*
X238750000Y-125500000D03*
%TD*%
D30*
%TO.C,ESP32*%
X200620000Y-96391250D03*
X200620000Y-93851250D03*
X200620000Y-91311250D03*
X200620000Y-88771250D03*
X200620000Y-86231250D03*
X200620000Y-83691250D03*
X200620000Y-81151250D03*
X200620000Y-78611250D03*
X200620000Y-76071250D03*
X200620000Y-73531250D03*
X200620000Y-70991250D03*
X200620000Y-68451250D03*
X200620000Y-65911250D03*
X200620000Y-63371250D03*
X200620000Y-60831250D03*
X175370000Y-60831250D03*
X175370000Y-63371250D03*
X175370000Y-65911250D03*
X175370000Y-68451250D03*
X175370000Y-70991250D03*
X175370000Y-73531250D03*
X175370000Y-76071250D03*
X175370000Y-78611250D03*
X175370000Y-81151250D03*
X175370000Y-83691250D03*
X175370000Y-86231250D03*
X175370000Y-88771250D03*
X175370000Y-91311250D03*
X175370000Y-93851250D03*
X175370000Y-96391250D03*
%TD*%
D12*
%TO.C,TC2*%
X219440000Y-126998750D03*
D11*
X224440000Y-126998750D03*
%TD*%
D31*
%TO.C,C1*%
X247000000Y-129297291D03*
D32*
X247000000Y-134297291D03*
%TD*%
D15*
%TO.C,D8*%
X142825000Y-128106250D03*
D14*
X145365000Y-128106250D03*
%TD*%
D20*
%TO.C,U4*%
X140050000Y-58441250D03*
X140050000Y-60941250D03*
X140050000Y-63441250D03*
X140050000Y-65941250D03*
X140050000Y-68441250D03*
D33*
X140050000Y-70941250D03*
%TD*%
D13*
%TO.C,R9*%
X148545000Y-122795000D03*
X148545000Y-130415000D03*
%TD*%
D34*
%TO.C,BZ1*%
X99000000Y-79500000D03*
D35*
X99000000Y-88000000D03*
%TD*%
D29*
%TO.C,MS1*%
X215200000Y-95321250D03*
X222820000Y-95321250D03*
X210120000Y-95321250D03*
X220280000Y-95321250D03*
X217740000Y-95321250D03*
X212660000Y-95321250D03*
X225360000Y-95321250D03*
%TD*%
D17*
%TO.C,D7*%
X143700000Y-122571250D03*
D16*
X143700000Y-114951250D03*
%TD*%
D12*
%TO.C,TC4*%
X175460000Y-127000000D03*
D11*
X180460000Y-127000000D03*
%TD*%
D13*
%TO.C,R4*%
X170660000Y-112920000D03*
X170660000Y-120540000D03*
%TD*%
D36*
%TO.C,TC1*%
X248910000Y-116051250D03*
D11*
X248910000Y-111051250D03*
%TD*%
D21*
%TO.C,REF\u002A\u002A*%
X256000000Y-54000000D03*
%TD*%
D19*
%TO.C,U8*%
X232495000Y-117791250D03*
D18*
X235035000Y-117791250D03*
X237575000Y-117791250D03*
%TD*%
D20*
%TO.C,U7*%
X251273000Y-75136250D03*
X248733000Y-75136250D03*
X246193000Y-75136250D03*
X243653000Y-75136250D03*
X241113000Y-75136250D03*
X238573000Y-75136250D03*
X236033000Y-75136250D03*
X233493000Y-75136250D03*
%TD*%
D35*
%TO.C,SW1*%
X251240000Y-122051250D03*
X247740000Y-122051250D03*
%TD*%
D13*
%TO.C,R5*%
X214640000Y-112918750D03*
X214640000Y-120538750D03*
%TD*%
D17*
%TO.C,D3*%
X209700000Y-122571250D03*
D16*
X209700000Y-114951250D03*
%TD*%
D37*
%TO.C,U2*%
X149710000Y-93061250D03*
X149710000Y-95601250D03*
X149710000Y-90521250D03*
X149710000Y-85441250D03*
X149710000Y-98141250D03*
X149710000Y-72741250D03*
X149710000Y-60041250D03*
X167490000Y-98141250D03*
X167490000Y-85441250D03*
X167490000Y-72741250D03*
X167490000Y-60041250D03*
X167490000Y-103221250D03*
X167490000Y-100681250D03*
X167490000Y-95601250D03*
X167490000Y-93061250D03*
X167490000Y-90521250D03*
X167490000Y-87981250D03*
X167490000Y-82901250D03*
X167490000Y-80361250D03*
X167490000Y-77821250D03*
X167490000Y-75281250D03*
X167490000Y-70201250D03*
X167490000Y-67661250D03*
X167490000Y-65121250D03*
X167490000Y-62581250D03*
X167490000Y-57501250D03*
X167490000Y-54961250D03*
X149710000Y-54961250D03*
X149710000Y-57501250D03*
X149710000Y-62581250D03*
X149710000Y-65121250D03*
X149710000Y-67661250D03*
X149710000Y-70201250D03*
X149710000Y-75281250D03*
X149710000Y-80361250D03*
X149710000Y-82901250D03*
X149710000Y-87981250D03*
X149710000Y-77821250D03*
X149710000Y-103221250D03*
X149710000Y-100681250D03*
%TD*%
M02*
