%TF.GenerationSoftware,KiCad,Pcbnew,9.0.2*%
%TF.CreationDate,2025-11-14T19:19:04-06:00*%
%TF.ProjectId,Computadora LANIAKEA,436f6d70-7574-4616-946f-7261204c414e,rev?*%
%TF.SameCoordinates,Original*%
%TF.FileFunction,Legend,Bot*%
%TF.FilePolarity,Positive*%
%FSLAX46Y46*%
G04 Gerber Fmt 4.6, Leading zero omitted, Abs format (unit mm)*
G04 Created by KiCad (PCBNEW 9.0.2) date 2025-11-14 19:19:04*
%MOMM*%
%LPD*%
G01*
G04 APERTURE LIST*
%ADD10C,0.100000*%
%ADD11C,0.000000*%
G04 APERTURE END LIST*
D10*
X211000000Y-57000000D02*
X252000000Y-57000000D01*
X252000000Y-133000000D01*
X211000000Y-133000000D01*
X211000000Y-57000000D01*
D11*
%TO.C,G\u002A\u002A\u002A*%
G36*
X127047852Y-74763301D02*
G01*
X127904014Y-74769135D01*
X131294268Y-74800883D01*
X131321546Y-90003214D01*
X131348823Y-105205544D01*
X127473876Y-105205544D01*
X123598929Y-105205544D01*
X123598929Y-90036715D01*
X123598929Y-74867886D01*
X124056344Y-74802636D01*
X124124907Y-74795821D01*
X124426801Y-74781977D01*
X124900536Y-74771537D01*
X125515620Y-74764767D01*
X126241556Y-74761934D01*
X127047852Y-74763301D01*
G37*
G36*
X143419917Y-86181431D02*
G01*
X148729861Y-86209358D01*
X148758145Y-90003214D01*
X148786428Y-93797070D01*
X145959840Y-93792951D01*
X143133251Y-93788832D01*
X140657827Y-90077995D01*
X140408918Y-89704597D01*
X139891702Y-88926940D01*
X139417966Y-88212301D01*
X139000416Y-87579994D01*
X138651757Y-87049332D01*
X138384696Y-86639625D01*
X138211938Y-86370188D01*
X138146188Y-86260331D01*
X138147556Y-86255479D01*
X138280604Y-86229540D01*
X138625353Y-86208646D01*
X139178812Y-86192843D01*
X139937989Y-86182176D01*
X140899894Y-86176688D01*
X142061534Y-86176425D01*
X143419917Y-86181431D01*
G37*
G36*
X148276105Y-74773399D02*
G01*
X157878166Y-74800883D01*
X157905444Y-90003214D01*
X157932722Y-105205544D01*
X154057774Y-105205544D01*
X150182827Y-105205544D01*
X150182827Y-93797070D01*
X150182827Y-82388595D01*
X141886570Y-82388595D01*
X141611308Y-82388549D01*
X140309200Y-82387052D01*
X139075490Y-82383568D01*
X137926493Y-82378263D01*
X136878529Y-82371304D01*
X135947914Y-82362858D01*
X135150966Y-82353091D01*
X134504002Y-82342171D01*
X134023340Y-82330264D01*
X133725296Y-82317538D01*
X133626189Y-82304158D01*
X133644596Y-82273376D01*
X133765211Y-82087118D01*
X133986909Y-81750686D01*
X134297017Y-81283134D01*
X134682860Y-80703517D01*
X135131764Y-80030889D01*
X135631053Y-79284304D01*
X136168054Y-78482817D01*
X138674043Y-74745914D01*
X148276105Y-74773399D01*
G37*
G36*
X209487350Y-83899909D02*
G01*
X210447419Y-83902135D01*
X211316697Y-83906105D01*
X212074441Y-83911635D01*
X212699907Y-83918542D01*
X213172352Y-83926642D01*
X213471031Y-83935751D01*
X213575200Y-83945685D01*
X213530514Y-83999093D01*
X213349909Y-84198158D01*
X213040617Y-84533462D01*
X212613288Y-84993609D01*
X212078573Y-85567205D01*
X211447126Y-86242855D01*
X210729597Y-87009165D01*
X209936638Y-87854738D01*
X209078901Y-88768182D01*
X208167038Y-89738101D01*
X207211699Y-90753100D01*
X200848198Y-97510205D01*
X208624635Y-97564019D01*
X216401072Y-97617832D01*
X215912123Y-98331986D01*
X215811191Y-98480357D01*
X215566468Y-98842864D01*
X215232314Y-99339867D01*
X214827008Y-99944107D01*
X214368829Y-100628324D01*
X213876055Y-101365259D01*
X213366964Y-102127654D01*
X211310753Y-105209167D01*
X202352934Y-105180449D01*
X193395115Y-105151731D01*
X192802442Y-104860650D01*
X192568474Y-104731431D01*
X192123613Y-104429830D01*
X191748815Y-104113178D01*
X191287861Y-103656787D01*
X191319030Y-100311778D01*
X191350200Y-96966770D01*
X191885855Y-96216030D01*
X192100869Y-95918450D01*
X192472836Y-95421927D01*
X192872321Y-94913344D01*
X193313188Y-94377139D01*
X193809303Y-93797751D01*
X194374530Y-93159619D01*
X195022737Y-92447183D01*
X195767787Y-91644881D01*
X196623547Y-90737153D01*
X197603882Y-89708437D01*
X198722658Y-88543172D01*
X203189183Y-83903963D01*
X208382192Y-83899669D01*
X208457235Y-83899612D01*
X209487350Y-83899909D01*
G37*
G36*
X207829874Y-58987231D02*
G01*
X208159238Y-59066146D01*
X208568351Y-59291566D01*
X208912072Y-59672900D01*
X209223410Y-60239816D01*
X209236715Y-60269030D01*
X209369290Y-60585013D01*
X209458521Y-60877188D01*
X209514988Y-61205319D01*
X209549274Y-61629171D01*
X209571960Y-62208510D01*
X209569516Y-63036283D01*
X209497061Y-63911527D01*
X209342769Y-64811747D01*
X209097302Y-65790324D01*
X208751325Y-66900637D01*
X208333892Y-68148696D01*
X210604758Y-67576091D01*
X211059225Y-67462077D01*
X211824599Y-67274368D01*
X212409588Y-67138994D01*
X212832379Y-67053001D01*
X213111160Y-67013432D01*
X213264115Y-67017333D01*
X213309432Y-67061747D01*
X213265298Y-67143719D01*
X213194940Y-67207131D01*
X212966184Y-67390037D01*
X212607277Y-67666595D01*
X212143462Y-68017595D01*
X211599981Y-68423826D01*
X211002076Y-68866079D01*
X208859858Y-70442637D01*
X209405772Y-72579797D01*
X209951687Y-74716956D01*
X210945012Y-74782206D01*
X211620974Y-74851279D01*
X212267764Y-74994216D01*
X212818740Y-75223154D01*
X213335206Y-75557992D01*
X213678840Y-75845894D01*
X214250565Y-76511764D01*
X214647322Y-77289922D01*
X214713502Y-77481842D01*
X214771633Y-77707953D01*
X214813106Y-77973430D01*
X214840637Y-78313446D01*
X214856940Y-78763175D01*
X214864732Y-79357789D01*
X214866725Y-80132463D01*
X214866725Y-82388595D01*
X203081556Y-82388595D01*
X191296386Y-82388595D01*
X191296225Y-81823553D01*
X191296315Y-81782544D01*
X191301622Y-81634668D01*
X191323443Y-81489445D01*
X191373249Y-81326706D01*
X191462508Y-81126280D01*
X191602690Y-80867997D01*
X191805265Y-80531688D01*
X192081702Y-80097183D01*
X192443471Y-79544312D01*
X192902040Y-78852904D01*
X193468881Y-78002790D01*
X195641699Y-74747070D01*
X202455907Y-74747070D01*
X202752564Y-74747023D01*
X203927284Y-74745892D01*
X205031620Y-74743353D01*
X206047465Y-74739537D01*
X206956710Y-74734578D01*
X207741245Y-74728606D01*
X208382963Y-74721756D01*
X208863753Y-74714158D01*
X209165506Y-74705946D01*
X209270115Y-74697252D01*
X209243036Y-74653081D01*
X209112004Y-74461792D01*
X208892377Y-74148297D01*
X208606546Y-73743952D01*
X208276902Y-73280116D01*
X207925837Y-72788146D01*
X207575741Y-72299401D01*
X207249004Y-71845240D01*
X206968019Y-71457019D01*
X206755176Y-71166098D01*
X206632866Y-71003833D01*
X206583755Y-71009265D01*
X206354839Y-71056852D01*
X205965444Y-71145773D01*
X205444575Y-71269223D01*
X204821235Y-71420394D01*
X204124426Y-71592482D01*
X203660648Y-71706292D01*
X203002800Y-71861497D01*
X202434284Y-71988144D01*
X201984879Y-72079940D01*
X201684360Y-72130593D01*
X201562506Y-72133811D01*
X201544819Y-72113603D01*
X201529932Y-72019665D01*
X201606535Y-71962492D01*
X201836138Y-71792928D01*
X202194945Y-71528611D01*
X202659465Y-71186831D01*
X203206206Y-70784881D01*
X203811677Y-70340054D01*
X203846904Y-70314173D01*
X204573176Y-69775490D01*
X205135042Y-69346960D01*
X205545351Y-69017874D01*
X205816950Y-68777525D01*
X205962689Y-68615208D01*
X205995414Y-68520213D01*
X205972399Y-68441987D01*
X205866586Y-68056173D01*
X205738188Y-67557750D01*
X205595522Y-66982432D01*
X205446910Y-66365931D01*
X205300671Y-65743961D01*
X205165124Y-65152233D01*
X205048589Y-64626461D01*
X204959386Y-64202356D01*
X204905835Y-63915633D01*
X204896255Y-63802003D01*
X204917134Y-63787084D01*
X204989712Y-63792958D01*
X205101645Y-63874855D01*
X205266915Y-64049515D01*
X205499508Y-64333680D01*
X205813407Y-64744091D01*
X206222595Y-65297491D01*
X206741057Y-66010620D01*
X207170437Y-66606581D01*
X207548548Y-67124121D01*
X207827816Y-67474037D01*
X208026079Y-67657440D01*
X208161176Y-67675443D01*
X208250946Y-67529158D01*
X208313228Y-67219697D01*
X208365859Y-66748172D01*
X208426680Y-66115694D01*
X208440717Y-65966270D01*
X208486117Y-64800887D01*
X208404712Y-63786263D01*
X208198488Y-62928399D01*
X207869430Y-62233296D01*
X207419527Y-61706954D01*
X206850765Y-61355374D01*
X206323068Y-61189843D01*
X205608348Y-61110008D01*
X204800589Y-61165567D01*
X203887378Y-61359290D01*
X202856298Y-61693949D01*
X201694936Y-62172314D01*
X200390878Y-62797156D01*
X200242355Y-62872595D01*
X199680526Y-63162186D01*
X199145388Y-63446628D01*
X198620078Y-63736719D01*
X198087734Y-64043256D01*
X197531495Y-64377036D01*
X196934496Y-64748855D01*
X196279877Y-65169509D01*
X195550773Y-65649797D01*
X194730324Y-66200514D01*
X193801667Y-66832456D01*
X192747939Y-67556422D01*
X191552278Y-68383208D01*
X190197821Y-69323610D01*
X190085650Y-69401554D01*
X189232088Y-69990978D01*
X188535665Y-70463929D01*
X187981476Y-70829809D01*
X187554618Y-71098019D01*
X187240186Y-71277958D01*
X187023276Y-71379028D01*
X186888985Y-71410629D01*
X186872501Y-71407803D01*
X186694634Y-71342184D01*
X186361884Y-71200086D01*
X185905407Y-70995416D01*
X185356360Y-70742082D01*
X184745899Y-70453992D01*
X184660881Y-70413495D01*
X184020539Y-70111562D01*
X183416926Y-69831959D01*
X182889307Y-69592531D01*
X182476944Y-69411123D01*
X182219102Y-69305581D01*
X181698173Y-69113807D01*
X182111475Y-68861356D01*
X182112224Y-68860899D01*
X182364675Y-68718630D01*
X182782356Y-68496943D01*
X183336827Y-68210022D01*
X183999643Y-67872050D01*
X184742365Y-67497209D01*
X185536548Y-67099685D01*
X186353752Y-66693659D01*
X187165535Y-66293316D01*
X187943453Y-65912839D01*
X188659066Y-65566412D01*
X189283931Y-65268217D01*
X189789607Y-65032438D01*
X190830336Y-64560245D01*
X192856370Y-63665719D01*
X194805324Y-62838094D01*
X196667080Y-62080762D01*
X198431524Y-61397111D01*
X200088539Y-60790532D01*
X201628008Y-60264414D01*
X203039816Y-59822147D01*
X204313847Y-59467122D01*
X205439985Y-59202728D01*
X206408112Y-59032355D01*
X207208114Y-58959393D01*
X207829874Y-58987231D01*
G37*
G36*
X162515686Y-66926884D02*
G01*
X162859717Y-66969141D01*
X163374610Y-67046069D01*
X163752289Y-67105622D01*
X166201660Y-67578385D01*
X168547491Y-68182630D01*
X170774917Y-68912422D01*
X172869072Y-69761823D01*
X174815093Y-70724898D01*
X176598114Y-71795708D01*
X178203270Y-72968318D01*
X179041215Y-73677286D01*
X180526214Y-75116983D01*
X181858531Y-76672462D01*
X183043206Y-78352956D01*
X184085279Y-80167700D01*
X184989790Y-82125927D01*
X185761778Y-84236872D01*
X186406284Y-86509768D01*
X186928347Y-88953849D01*
X186966294Y-89167958D01*
X187142694Y-90348005D01*
X187298392Y-91710212D01*
X187430619Y-93227638D01*
X187536607Y-94873341D01*
X187558126Y-95331257D01*
X187583441Y-96139467D01*
X187597005Y-96995582D01*
X187599579Y-97873290D01*
X187591922Y-98746279D01*
X187574796Y-99588237D01*
X187548960Y-100372852D01*
X187515176Y-101073812D01*
X187474203Y-101664805D01*
X187426803Y-102119520D01*
X187373735Y-102411644D01*
X187315760Y-102514866D01*
X187248310Y-102443536D01*
X187126807Y-102219558D01*
X186985828Y-101896010D01*
X186975482Y-101869981D01*
X186661237Y-101100686D01*
X186309879Y-100275817D01*
X185932509Y-99418405D01*
X185540229Y-98551479D01*
X185144141Y-97698069D01*
X184755346Y-96881207D01*
X184384947Y-96123921D01*
X184044045Y-95449243D01*
X183743742Y-94880201D01*
X183495140Y-94439828D01*
X183309340Y-94151152D01*
X183197446Y-94037205D01*
X183185512Y-94033737D01*
X183050427Y-93905102D01*
X183009098Y-93613000D01*
X183006588Y-93515581D01*
X182949291Y-93283876D01*
X182793844Y-93182492D01*
X182669061Y-93114413D01*
X182578590Y-92936053D01*
X182538462Y-92815330D01*
X182363336Y-92689614D01*
X182296291Y-92665501D01*
X182180227Y-92529849D01*
X182148081Y-92246552D01*
X182140079Y-92061256D01*
X182079663Y-91900628D01*
X181932827Y-91859782D01*
X181808583Y-91835408D01*
X181735624Y-91710927D01*
X181717573Y-91429273D01*
X181705386Y-91180785D01*
X181643146Y-91034867D01*
X181502319Y-90998765D01*
X181399194Y-90984385D01*
X181309797Y-90875830D01*
X181287064Y-90611994D01*
X181283402Y-90490569D01*
X181224798Y-90266699D01*
X181071810Y-90168932D01*
X180947460Y-90099328D01*
X180856556Y-89909941D01*
X180822538Y-89784427D01*
X180641302Y-89707239D01*
X180517057Y-89682865D01*
X180444098Y-89558385D01*
X180426047Y-89276731D01*
X180413860Y-89028242D01*
X180351620Y-88882324D01*
X180210793Y-88846222D01*
X180077507Y-88814188D01*
X179995539Y-88643521D01*
X179956156Y-88516123D01*
X179780285Y-88384529D01*
X179713240Y-88360416D01*
X179597176Y-88224765D01*
X179565030Y-87941468D01*
X179557028Y-87756172D01*
X179496612Y-87595544D01*
X179349776Y-87554697D01*
X179210626Y-87519321D01*
X179134522Y-87339443D01*
X179106175Y-87213866D01*
X178984596Y-87124188D01*
X178878206Y-87090494D01*
X178749927Y-86886342D01*
X178704014Y-86523437D01*
X178659538Y-86328584D01*
X178488759Y-86263171D01*
X178355473Y-86231137D01*
X178273505Y-86060470D01*
X178234123Y-85933072D01*
X178058251Y-85801478D01*
X178036948Y-85795321D01*
X177886618Y-85672064D01*
X177842997Y-85402154D01*
X177842629Y-85368110D01*
X177789953Y-85114766D01*
X177627742Y-85002831D01*
X177503392Y-84933226D01*
X177412488Y-84743839D01*
X177378470Y-84618325D01*
X177197234Y-84541137D01*
X177063948Y-84509103D01*
X176981980Y-84338436D01*
X176942597Y-84211038D01*
X176766725Y-84079444D01*
X176745423Y-84073287D01*
X176595093Y-83950030D01*
X176551471Y-83680120D01*
X176551104Y-83646076D01*
X176498427Y-83392733D01*
X176336217Y-83280797D01*
X176211866Y-83211193D01*
X176120963Y-83021805D01*
X176086945Y-82896292D01*
X175905708Y-82819104D01*
X175766558Y-82783727D01*
X175690454Y-82603849D01*
X175655078Y-82464699D01*
X175475200Y-82388595D01*
X175341914Y-82356561D01*
X175259946Y-82185894D01*
X175220563Y-82058496D01*
X175044692Y-81926902D01*
X174919696Y-81864468D01*
X174829437Y-81711647D01*
X174789157Y-81608805D01*
X174614183Y-81496393D01*
X174489187Y-81433959D01*
X174398929Y-81281139D01*
X174358648Y-81178297D01*
X174183675Y-81065885D01*
X174058679Y-81003451D01*
X173968420Y-80850631D01*
X173928140Y-80747788D01*
X173753166Y-80635376D01*
X173628170Y-80572942D01*
X173537912Y-80420122D01*
X173497631Y-80317280D01*
X173322658Y-80204868D01*
X173197662Y-80142434D01*
X173107403Y-79989614D01*
X173067123Y-79886771D01*
X172892149Y-79774359D01*
X172767249Y-79709656D01*
X172676895Y-79546552D01*
X172640312Y-79446661D01*
X172461641Y-79375036D01*
X172322490Y-79339660D01*
X172246386Y-79159782D01*
X172211010Y-79020631D01*
X172031132Y-78944527D01*
X171891982Y-78909151D01*
X171815878Y-78729273D01*
X171780502Y-78590123D01*
X171600624Y-78514019D01*
X171461473Y-78478643D01*
X171385369Y-78298765D01*
X171360996Y-78174520D01*
X171236515Y-78101561D01*
X170954861Y-78083510D01*
X170706373Y-78071323D01*
X170560455Y-78009083D01*
X170524353Y-77868256D01*
X170488976Y-77729106D01*
X170309098Y-77653002D01*
X170183522Y-77624655D01*
X170093844Y-77503076D01*
X170087765Y-77450769D01*
X169973384Y-77318766D01*
X169695880Y-77245265D01*
X169231353Y-77222493D01*
X169169935Y-77222786D01*
X168855868Y-77248003D01*
X168657337Y-77339272D01*
X168488742Y-77532307D01*
X168391530Y-77680395D01*
X168102734Y-78248982D01*
X167817831Y-78989767D01*
X167546058Y-79870723D01*
X167296652Y-80859824D01*
X167078849Y-81925044D01*
X166901886Y-83034358D01*
X166872180Y-83275890D01*
X166806910Y-84030212D01*
X166758758Y-84931256D01*
X166728067Y-85930044D01*
X166715181Y-86977597D01*
X166720439Y-88024936D01*
X166744186Y-89023083D01*
X166786762Y-89923058D01*
X166848510Y-90675883D01*
X167136254Y-92886968D01*
X167731862Y-96122502D01*
X168537200Y-99389051D01*
X169550820Y-102683503D01*
X170771273Y-106002744D01*
X172197112Y-109343663D01*
X173826890Y-112703145D01*
X175659158Y-116078077D01*
X177692469Y-119465348D01*
X179925374Y-122861843D01*
X182356426Y-126264450D01*
X184984178Y-129670055D01*
X185089026Y-129801721D01*
X185413456Y-130218000D01*
X185675688Y-130567894D01*
X185851090Y-130817939D01*
X185915030Y-130934673D01*
X185914169Y-130959119D01*
X185888897Y-131028697D01*
X185818017Y-131040608D01*
X185687288Y-130983997D01*
X185482467Y-130848009D01*
X185189314Y-130621792D01*
X184793587Y-130294489D01*
X184281044Y-129855246D01*
X183637443Y-129293210D01*
X182848543Y-128597526D01*
X181960417Y-127797211D01*
X179313561Y-125221379D01*
X176826582Y-122501589D01*
X174500669Y-119639278D01*
X172337013Y-116635880D01*
X170336802Y-113492832D01*
X170186730Y-113240297D01*
X169879242Y-112715498D01*
X169608390Y-112243758D01*
X169399109Y-111868778D01*
X169276334Y-111634259D01*
X169225804Y-111534318D01*
X169093526Y-111326597D01*
X169002021Y-111257564D01*
X168967395Y-111279621D01*
X168785711Y-111414116D01*
X168473661Y-111653464D01*
X168056203Y-111978299D01*
X167558298Y-112369259D01*
X167004903Y-112806979D01*
X164203490Y-114984072D01*
X161494933Y-116993878D01*
X158894269Y-118824638D01*
X156402023Y-120476114D01*
X154018720Y-121948068D01*
X151744885Y-123240262D01*
X149581041Y-124352457D01*
X147527714Y-125284417D01*
X145585429Y-126035902D01*
X143754709Y-126606676D01*
X142036080Y-126996498D01*
X140430066Y-127205133D01*
X138937191Y-127232341D01*
X137557982Y-127077885D01*
X136292961Y-126741527D01*
X135728639Y-126521456D01*
X135089735Y-126209915D01*
X134451028Y-125820222D01*
X133766157Y-125323611D01*
X132988760Y-124691314D01*
X132738629Y-124399347D01*
X132479138Y-123937333D01*
X132259752Y-123385839D01*
X132110734Y-122809718D01*
X132095281Y-122719190D01*
X132027201Y-122074527D01*
X131999782Y-121301843D01*
X132012237Y-120472371D01*
X132063779Y-119657346D01*
X132153621Y-118928002D01*
X132189161Y-118719807D01*
X132597014Y-116951441D01*
X133200639Y-115125712D01*
X133993373Y-113254731D01*
X134968556Y-111350606D01*
X136119527Y-109425446D01*
X137439624Y-107491361D01*
X138922186Y-105560460D01*
X140560553Y-103644854D01*
X140756655Y-103429860D01*
X141225627Y-102930527D01*
X141766895Y-102369115D01*
X142349064Y-101776893D01*
X142940738Y-101185129D01*
X143510521Y-100625090D01*
X144027017Y-100128045D01*
X144458830Y-99725262D01*
X144774564Y-99448009D01*
X144868246Y-99369145D01*
X144975981Y-99283882D01*
X145051430Y-99253721D01*
X145096092Y-99301383D01*
X145111466Y-99449589D01*
X145099049Y-99721061D01*
X145060340Y-100138518D01*
X144996838Y-100724681D01*
X144910041Y-101502271D01*
X144858129Y-101991443D01*
X144793383Y-102672397D01*
X144741702Y-103300966D01*
X144707399Y-103823387D01*
X144694787Y-104185893D01*
X144693844Y-104942089D01*
X143656903Y-105956293D01*
X143351360Y-106258428D01*
X141923414Y-107766294D01*
X140633804Y-109292589D01*
X139491230Y-110823044D01*
X138504396Y-112343390D01*
X137682002Y-113839359D01*
X137032751Y-115296683D01*
X136565345Y-116701092D01*
X136288486Y-118038318D01*
X136260144Y-118273427D01*
X136237598Y-119292572D01*
X136385216Y-120213910D01*
X136696296Y-121023737D01*
X137164134Y-121708352D01*
X137782025Y-122254053D01*
X138543267Y-122647136D01*
X138603687Y-122669406D01*
X139618004Y-122932589D01*
X140781585Y-123044079D01*
X142092046Y-123004741D01*
X143547006Y-122815439D01*
X145144081Y-122477036D01*
X146880887Y-121990398D01*
X148755041Y-121356389D01*
X150764161Y-120575872D01*
X152905863Y-119649712D01*
X155177764Y-118578773D01*
X157577480Y-117363920D01*
X160102629Y-116006016D01*
X162750827Y-114505926D01*
X165519692Y-112864515D01*
X165659742Y-112779699D01*
X166296843Y-112392557D01*
X166916953Y-112013801D01*
X167492218Y-111660621D01*
X167994787Y-111350208D01*
X168396807Y-111099752D01*
X168670424Y-110926444D01*
X168787786Y-110847474D01*
X168789639Y-110843079D01*
X168746913Y-110717656D01*
X168623176Y-110461795D01*
X168441854Y-110124455D01*
X168362073Y-109979727D01*
X167973337Y-109228612D01*
X167534702Y-108318311D01*
X167061670Y-107285276D01*
X166569749Y-106165955D01*
X166074442Y-104996801D01*
X165591255Y-103814262D01*
X165135693Y-102654789D01*
X164723261Y-101554833D01*
X164369464Y-100550843D01*
X164338548Y-100460245D01*
X164153709Y-99950814D01*
X163987528Y-99544624D01*
X163854907Y-99275832D01*
X163770751Y-99178597D01*
X163749211Y-99174913D01*
X163665150Y-99034941D01*
X163636217Y-98702906D01*
X163635851Y-98637737D01*
X163602935Y-98207274D01*
X163511821Y-97963661D01*
X163355634Y-97886900D01*
X163268449Y-97828511D01*
X163220075Y-97624626D01*
X163205708Y-97241137D01*
X163201751Y-96955117D01*
X163175641Y-96722442D01*
X163110678Y-96618937D01*
X162990454Y-96595375D01*
X162948088Y-96593816D01*
X162854927Y-96557400D01*
X162802846Y-96438877D01*
X162780164Y-96193894D01*
X162775200Y-95778095D01*
X162775036Y-95682102D01*
X162766111Y-95297516D01*
X162735092Y-95071397D01*
X162670273Y-94956236D01*
X162559946Y-94904526D01*
X162522663Y-94893307D01*
X162428175Y-94829562D01*
X162374407Y-94690448D01*
X162350273Y-94429379D01*
X162344692Y-93999771D01*
X162344019Y-93791529D01*
X162333551Y-93446040D01*
X162301671Y-93253236D01*
X162237320Y-93169523D01*
X162129437Y-93151307D01*
X162031528Y-93136790D01*
X161967762Y-93066022D01*
X161932472Y-92899259D01*
X161917375Y-92596757D01*
X161914183Y-92118773D01*
X161911541Y-91694343D01*
X161897023Y-91364472D01*
X161862281Y-91171775D01*
X161799017Y-91074264D01*
X161698929Y-91029949D01*
X161610003Y-90993714D01*
X161542253Y-90905695D01*
X161503907Y-90728137D01*
X161486659Y-90419151D01*
X161482205Y-89936847D01*
X161475705Y-89414347D01*
X161449264Y-88938638D01*
X161398019Y-88630877D01*
X161317204Y-88465193D01*
X161202054Y-88415714D01*
X161167709Y-88406806D01*
X161111918Y-88317142D01*
X161076755Y-88105681D01*
X161058432Y-87741337D01*
X161053166Y-87193023D01*
X161048600Y-86657128D01*
X161020634Y-85923317D01*
X160967472Y-85396205D01*
X160889399Y-85078184D01*
X160786704Y-84971646D01*
X160782093Y-84970949D01*
X160744441Y-84901353D01*
X160711605Y-84707143D01*
X160682773Y-84373212D01*
X160657132Y-83884454D01*
X160633870Y-83225761D01*
X160612172Y-82382027D01*
X160591228Y-81338145D01*
X160576142Y-80357680D01*
X160564687Y-79164518D01*
X160560515Y-77993219D01*
X160563237Y-76863120D01*
X160572463Y-75793557D01*
X160587804Y-74803866D01*
X160608873Y-73913384D01*
X160635279Y-73141448D01*
X160666635Y-72507393D01*
X160702551Y-72030556D01*
X160742640Y-71730274D01*
X160786511Y-71625883D01*
X160829882Y-71604895D01*
X160918014Y-71419524D01*
X160988852Y-71073537D01*
X161036026Y-70604572D01*
X161053166Y-70050268D01*
X161061691Y-69820630D01*
X161098938Y-69570524D01*
X161155734Y-69473341D01*
X161201064Y-69451263D01*
X161301138Y-69274161D01*
X161391694Y-68968647D01*
X161457437Y-68593805D01*
X161483074Y-68208722D01*
X161485224Y-68101122D01*
X161528723Y-67835249D01*
X161633448Y-67751307D01*
X161740260Y-67698051D01*
X161844028Y-67509146D01*
X161901677Y-67343000D01*
X162051504Y-67066459D01*
X162091922Y-67014559D01*
X162173473Y-66948950D01*
X162300833Y-66919939D01*
X162515686Y-66926884D01*
G37*
%TD*%
M02*
