M48
; DRILL file {KiCad 9.0.2} date 2025-11-14T19:19:00-0600
; FORMAT={-:-/ absolute / inch / decimal}
; #@! TF.CreationDate,2025-11-14T19:19:00-06:00
; #@! TF.GenerationSoftware,Kicad,Pcbnew,9.0.2
; #@! TF.FileFunction,Plated,1,2,PTH
FMAT,2
INCH
; #@! TA.AperFunction,Plated,PTH,ViaDrill
T1C0.0197
; #@! TA.AperFunction,Plated,PTH,ComponentDrill
T2C0.0197
; #@! TA.AperFunction,Plated,PTH,ComponentDrill
T3C0.0276
; #@! TA.AperFunction,Plated,PTH,ComponentDrill
T4C0.0300
; #@! TA.AperFunction,Plated,PTH,ComponentDrill
T5C0.0315
; #@! TA.AperFunction,Plated,PTH,ComponentDrill
T6C0.0354
; #@! TA.AperFunction,Plated,PTH,ComponentDrill
T7C0.0394
; #@! TA.AperFunction,Plated,PTH,ComponentDrill
T8C0.0433
; #@! TA.AperFunction,Plated,PTH,ComponentDrill
T9C0.0472
; #@! TA.AperFunction,Plated,PTH,ComponentDrill
T10C0.0512
; #@! TA.AperFunction,Plated,PTH,ComponentDrill
T11C0.0866
; #@! TA.AperFunction,Plated,PTH,ViaDrill
T12C0.1142
%
G90
G05
T1
X3.3465Y-3.3465
X3.4646Y-5.1969
X4.2913Y-5.2756
X5.315Y-4.2913
X5.815Y-5.0693
X6.4173Y-3.6614
X8.2563Y-4.3292
X8.6156Y-3.9699
X8.9256Y-2.8493
T2
X4.4882Y-4.5276
X4.4882Y-5.3937
X4.5669Y-4.5276
X4.5669Y-5.3937
X4.6457Y-4.5276
X4.6457Y-5.3937
X4.7244Y-4.5276
X4.7244Y-5.3937
X4.8031Y-4.5276
X4.8031Y-5.3937
X4.8819Y-4.5276
X4.8819Y-5.3937
X4.9606Y-4.5276
X4.9606Y-5.3937
X5.0394Y-4.5276
X5.0394Y-5.3937
X5.1181Y-4.5276
X5.1181Y-5.3937
X5.1969Y-4.5276
X5.1969Y-5.3937
T3
X5.8482Y-4.4486
X5.8482Y-4.7486
X5.8482Y-4.8344
X5.8482Y-5.1344
X6.7189Y-4.4457
X6.7189Y-4.7457
X6.7189Y-4.8315
X6.7189Y-5.1315
X7.585Y-4.4457
X7.585Y-4.7457
X7.585Y-4.8315
X7.585Y-5.1315
X8.4504Y-4.4456
X8.4504Y-4.7456
X8.4504Y-4.8314
X8.4504Y-5.1314
T4
X3.5866Y-3.626
X3.5866Y-3.726
X3.5866Y-3.826
X3.5866Y-3.926
X3.5866Y-4.026
X3.5866Y-4.126
X3.5866Y-4.226
X3.5866Y-4.326
X5.5138Y-2.3008
X5.5138Y-2.3993
X5.5138Y-2.4977
X5.5138Y-2.5961
X5.5138Y-2.6945
X5.5138Y-2.793
X8.1745Y-2.9589
X8.2745Y-2.9589
X8.3745Y-2.9589
X8.4745Y-2.9589
X8.5745Y-2.9589
X8.6745Y-2.9589
X8.7745Y-2.9589
X8.8745Y-2.9589
X9.1926Y-2.9581
X9.2926Y-2.9581
X9.3926Y-2.9581
X9.4926Y-2.9581
X9.5926Y-2.9581
X9.6926Y-2.9581
X9.7926Y-2.9581
X9.8926Y-2.9581
T5
X5.6575Y-4.5256
X5.6575Y-4.8256
X6.5236Y-4.5256
X6.5236Y-4.8256
X7.4291Y-4.5256
X7.4291Y-4.8256
X8.2559Y-4.5256
X8.2559Y-4.8256
X9.1043Y-4.7867
X9.1043Y-4.9409
X9.3996Y-4.7867
X9.3996Y-4.9409
T6
X4.4075Y-3.504
X4.4075Y-3.604
X4.4075Y-3.704
X4.4075Y-3.8032
X4.4075Y-3.904
X4.4075Y-4.004
X5.5492Y-3.504
X5.5492Y-3.604
X5.5492Y-3.704
X5.5492Y-3.804
X5.5492Y-3.904
X5.5492Y-4.004
X5.623Y-5.0436
X5.723Y-5.0436
X6.463Y-5.0425
X6.563Y-5.0425
X7.3291Y-5.03
X7.4291Y-5.03
X8.1953Y-5.03
X8.2921Y-2.1249
X8.2921Y-2.7249
X8.2953Y-5.03
X8.3921Y-2.1249
X8.3921Y-2.7249
X8.4921Y-2.1249
X8.4921Y-2.7249
X8.5921Y-2.1249
X8.5921Y-2.7249
X8.6921Y-2.1249
X8.6921Y-2.7249
X8.7921Y-2.1249
X8.7921Y-2.7249
X8.8921Y-2.1249
X8.8921Y-2.7249
X8.9921Y-2.1249
X8.9921Y-2.7249
X9.0921Y-2.1249
X9.0921Y-2.7249
X9.1921Y-2.1249
X9.1921Y-2.7249
X9.2921Y-2.1249
X9.2921Y-2.7249
X9.3921Y-2.1249
X9.3921Y-2.7249
X9.4921Y-2.1249
X9.4921Y-2.7249
X9.5921Y-2.1249
X9.5921Y-2.7249
X9.6921Y-2.1249
X9.6921Y-2.7249
T7
X3.8976Y-3.1299
X3.8976Y-3.4646
X5.8941Y-2.1638
X5.8941Y-2.2638
X5.8941Y-2.3638
X5.8941Y-2.4638
X5.8941Y-2.5638
X5.8941Y-2.6638
X5.8941Y-2.7638
X5.8941Y-2.8638
X5.8941Y-2.9638
X5.8941Y-3.0638
X5.8941Y-3.1638
X5.8941Y-3.2638
X5.8941Y-3.3638
X5.8941Y-3.4638
X5.8941Y-3.5638
X5.8941Y-3.6638
X5.8941Y-3.7638
X5.8941Y-3.8638
X5.8941Y-3.9638
X5.8941Y-4.0638
X6.5941Y-2.1638
X6.5941Y-2.2638
X6.5941Y-2.3638
X6.5941Y-2.4638
X6.5941Y-2.5638
X6.5941Y-2.6638
X6.5941Y-2.7638
X6.5941Y-2.8638
X6.5941Y-2.9638
X6.5941Y-3.0638
X6.5941Y-3.1638
X6.5941Y-3.2638
X6.5941Y-3.3638
X6.5941Y-3.4638
X6.5941Y-3.5638
X6.5941Y-3.6638
X6.5941Y-3.7638
X6.5941Y-3.8638
X6.5941Y-3.9638
X6.5941Y-4.0638
X6.9043Y-2.3949
X6.9043Y-2.4949
X6.9043Y-2.5949
X6.9043Y-2.6949
X6.9043Y-2.7949
X6.9043Y-2.8949
X6.9043Y-2.9949
X6.9043Y-3.0949
X6.9043Y-3.1949
X6.9043Y-3.2949
X6.9043Y-3.3949
X6.9043Y-3.4949
X6.9043Y-3.5949
X6.9043Y-3.6949
X6.9043Y-3.7949
X7.8984Y-2.3949
X7.8984Y-2.4949
X7.8984Y-2.5949
X7.8984Y-2.6949
X7.8984Y-2.7949
X7.8984Y-2.8949
X7.8984Y-2.9949
X7.8984Y-3.0949
X7.8984Y-3.1949
X7.8984Y-3.2949
X7.8984Y-3.3949
X7.8984Y-3.4949
X7.8984Y-3.5949
X7.8984Y-3.6949
X7.8984Y-3.7949
X9.7535Y-4.8052
X9.8913Y-4.8052
T8
X6.0372Y-4.6868
X6.1372Y-4.6868
X6.2372Y-4.6868
X6.9079Y-4.685
X7.0079Y-4.685
X7.1079Y-4.685
X7.774Y-4.685
X7.874Y-4.685
X7.974Y-4.685
X8.6394Y-4.685
X8.7394Y-4.685
X8.8394Y-4.685
X9.1533Y-4.6375
X9.2533Y-4.6375
X9.3533Y-4.6375
T9
X8.2724Y-3.7528
X8.3724Y-3.7528
X8.4724Y-3.7528
X8.5724Y-3.7528
X8.6724Y-3.7528
X8.7724Y-3.7528
X8.8724Y-3.7528
X9.2947Y-3.7537
X9.3947Y-3.7537
X9.4947Y-3.7537
X9.5947Y-3.7537
X9.6947Y-3.7537
X9.7244Y-5.0904
X9.7244Y-5.2873
X9.7947Y-3.7537
X9.8947Y-3.7537
T10
X6.0372Y-5.0018
X6.2341Y-5.0018
X6.9079Y-5.0
X7.1047Y-5.0
X7.774Y-5.0
X7.9709Y-5.0
X8.6394Y-5.0
X8.8362Y-5.0
X9.7996Y-4.3721
X9.7996Y-4.5689
T11
X3.3071Y-2.126
X3.3071Y-5.3543
X10.0787Y-2.126
X10.0787Y-5.3543
T12
X10.0787Y-4.3701
X10.0787Y-4.5669
M30
