%TF.GenerationSoftware,KiCad,Pcbnew,9.0.2*%
%TF.CreationDate,2025-11-14T19:19:04-06:00*%
%TF.ProjectId,Computadora LANIAKEA,436f6d70-7574-4616-946f-7261204c414e,rev?*%
%TF.SameCoordinates,Original*%
%TF.FileFunction,Soldermask,Bot*%
%TF.FilePolarity,Negative*%
%FSLAX46Y46*%
G04 Gerber Fmt 4.6, Leading zero omitted, Abs format (unit mm)*
G04 Created by KiCad (PCBNEW 9.0.2) date 2025-11-14 19:19:04*
%MOMM*%
%LPD*%
G01*
G04 APERTURE LIST*
G04 Aperture macros list*
%AMRoundRect*
0 Rectangle with rounded corners*
0 $1 Rounding radius*
0 $2 $3 $4 $5 $6 $7 $8 $9 X,Y pos of 4 corners*
0 Add a 4 corners polygon primitive as box body*
4,1,4,$2,$3,$4,$5,$6,$7,$8,$9,$2,$3,0*
0 Add four circle primitives for the rounded corners*
1,1,$1+$1,$2,$3*
1,1,$1+$1,$4,$5*
1,1,$1+$1,$6,$7*
1,1,$1+$1,$8,$9*
0 Add four rect primitives between the rounded corners*
20,1,$1+$1,$2,$3,$4,$5,0*
20,1,$1+$1,$4,$5,$6,$7,0*
20,1,$1+$1,$6,$7,$8,$9,0*
20,1,$1+$1,$8,$9,$2,$3,0*%
G04 Aperture macros list end*
%ADD10C,2.800000*%
%ADD11RoundRect,0.250001X-1.149999X-1.149999X1.149999X-1.149999X1.149999X1.149999X-1.149999X1.149999X0*%
%ADD12C,1.400000*%
%ADD13C,1.800000*%
%ADD14R,1.800000X1.800000*%
%ADD15C,1.600000*%
%ADD16RoundRect,0.250000X0.550000X-0.550000X0.550000X0.550000X-0.550000X0.550000X-0.550000X-0.550000X0*%
%ADD17O,1.905000X2.000000*%
%ADD18R,1.905000X2.000000*%
%ADD19C,1.524000*%
%ADD20C,4.400000*%
%ADD21C,1.500000*%
%ADD22RoundRect,0.250000X0.500000X0.500000X-0.500000X0.500000X-0.500000X-0.500000X0.500000X-0.500000X0*%
%ADD23R,1.500000X1.500000*%
%ADD24RoundRect,0.102000X0.504000X-0.504000X0.504000X0.504000X-0.504000X0.504000X-0.504000X-0.504000X0*%
%ADD25C,1.212000*%
%ADD26RoundRect,0.102000X0.900000X-0.900000X0.900000X0.900000X-0.900000X0.900000X-0.900000X-0.900000X0*%
%ADD27C,2.004000*%
%ADD28C,1.750000*%
%ADD29C,1.700000*%
%ADD30RoundRect,0.250001X-0.949999X0.949999X-0.949999X-0.949999X0.949999X-0.949999X0.949999X0.949999X0*%
%ADD31C,2.400000*%
%ADD32RoundRect,0.250000X0.512000X0.512000X-0.512000X0.512000X-0.512000X-0.512000X0.512000X-0.512000X0*%
%ADD33R,2.000000X2.000000*%
%ADD34C,2.000000*%
%ADD35RoundRect,0.250001X1.149999X-1.149999X1.149999X1.149999X-1.149999X1.149999X-1.149999X-1.149999X0*%
%ADD36RoundRect,0.102000X0.754000X0.754000X-0.754000X0.754000X-0.754000X-0.754000X0.754000X-0.754000X0*%
G04 APERTURE END LIST*
D10*
%TO.C,TC3*%
X202460000Y-127000000D03*
D11*
X197460000Y-127000000D03*
%TD*%
D12*
%TO.C,R6*%
X192660000Y-120540000D03*
X192660000Y-112920000D03*
%TD*%
D13*
%TO.C,D6*%
X188700000Y-127761250D03*
D14*
X186160000Y-127761250D03*
%TD*%
D15*
%TO.C,D4*%
X188700000Y-114951250D03*
D16*
X188700000Y-122571250D03*
%TD*%
D17*
%TO.C,Q3*%
X202540000Y-119000000D03*
X200000000Y-119000000D03*
D18*
X197460000Y-119000000D03*
%TD*%
D12*
%TO.C,R7*%
X192660000Y-130340000D03*
X192660000Y-122720000D03*
%TD*%
D18*
%TO.C,Q4*%
X153345000Y-119045000D03*
D17*
X155885000Y-119045000D03*
X158425000Y-119045000D03*
%TD*%
D14*
%TO.C,D2*%
X164160000Y-128080000D03*
D13*
X166700000Y-128080000D03*
%TD*%
D15*
%TO.C,C2*%
X231250000Y-121581250D03*
X238750000Y-121581250D03*
%TD*%
D19*
%TO.C,U5*%
X225413000Y-75156250D03*
X222873000Y-75156250D03*
X220333000Y-75156250D03*
X217793000Y-75156250D03*
X215253000Y-75156250D03*
X212713000Y-75156250D03*
X210173000Y-75156250D03*
X207633000Y-75156250D03*
%TD*%
%TO.C,INA226*%
X91100000Y-99720000D03*
X91100000Y-107340000D03*
X91100000Y-92100000D03*
X91100000Y-94640000D03*
X91100000Y-104800000D03*
X91100000Y-102260000D03*
X91100000Y-97180000D03*
X91100000Y-109880000D03*
%TD*%
D18*
%TO.C,Q2*%
X175460000Y-119000000D03*
D17*
X178000000Y-119000000D03*
X180540000Y-119000000D03*
%TD*%
D20*
%TO.C,REF\u002A\u002A*%
X84000000Y-54000000D03*
%TD*%
%TO.C,REF\u002A\u002A*%
X84000000Y-136000000D03*
%TD*%
D18*
%TO.C,Q1*%
X219440000Y-118998750D03*
D17*
X221980000Y-118998750D03*
X224520000Y-118998750D03*
%TD*%
D21*
%TO.C,RYS1*%
X140950000Y-89001250D03*
D22*
X140950000Y-91541250D03*
D21*
X140950000Y-94081250D03*
X140950000Y-96621250D03*
D23*
X140950000Y-99161250D03*
D21*
X140950000Y-101701250D03*
D22*
X111950000Y-101701250D03*
X111950000Y-99161250D03*
X111950000Y-96601250D03*
X111950000Y-94081250D03*
X111950000Y-91541250D03*
X111950000Y-89001250D03*
%TD*%
D24*
%TO.C,U3*%
X114000000Y-137000000D03*
D25*
X116000000Y-137000000D03*
X118000000Y-137000000D03*
X120000000Y-137000000D03*
X122000000Y-137000000D03*
X124000000Y-137000000D03*
X126000000Y-137000000D03*
X128000000Y-137000000D03*
X130000000Y-137000000D03*
X132000000Y-137000000D03*
X132000000Y-115000000D03*
X130000000Y-115000000D03*
X128000000Y-115000000D03*
X126000000Y-115000000D03*
X124000000Y-115000000D03*
X122000000Y-115000000D03*
X120000000Y-115000000D03*
X118000000Y-115000000D03*
X116000000Y-115000000D03*
X114000000Y-115000000D03*
%TD*%
D14*
%TO.C,D1*%
X208160000Y-127761250D03*
D13*
X210700000Y-127761250D03*
%TD*%
D12*
%TO.C,R8*%
X148545000Y-112995000D03*
X148545000Y-120615000D03*
%TD*%
D26*
%TO.C,U1*%
X210620000Y-69211250D03*
D27*
X213160000Y-69211250D03*
X215700000Y-69211250D03*
X218240000Y-69211250D03*
X220780000Y-69211250D03*
X223320000Y-69211250D03*
X225860000Y-69211250D03*
X228400000Y-69211250D03*
X230940000Y-69211250D03*
X233480000Y-69211250D03*
X236020000Y-69211250D03*
X238560000Y-69211250D03*
X241100000Y-69211250D03*
X243640000Y-69211250D03*
X246180000Y-69211250D03*
X246180000Y-53971250D03*
X243640000Y-53971250D03*
X241100000Y-53971250D03*
X238560000Y-53971250D03*
X236020000Y-53971250D03*
X233480000Y-53971250D03*
X230940000Y-53971250D03*
X228400000Y-53971250D03*
X225860000Y-53971250D03*
X223320000Y-53971250D03*
X220780000Y-53971250D03*
X218240000Y-53971250D03*
X215700000Y-53971250D03*
X213160000Y-53971250D03*
X210620000Y-53971250D03*
%TD*%
D12*
%TO.C,R2*%
X170660000Y-122720000D03*
X170660000Y-130340000D03*
%TD*%
%TO.C,R1*%
X214640000Y-122718750D03*
X214640000Y-130338750D03*
%TD*%
D11*
%TO.C,TC5*%
X153345000Y-127045000D03*
D10*
X158345000Y-127045000D03*
%TD*%
D20*
%TO.C,REF\u002A\u002A*%
X256000000Y-136000000D03*
%TD*%
D16*
%TO.C,D5*%
X165700000Y-122571250D03*
D15*
X165700000Y-114951250D03*
%TD*%
D28*
%TO.C,MS2*%
X241165100Y-95344550D03*
X248785100Y-95344550D03*
X236085100Y-95344550D03*
X246245100Y-95344550D03*
X243705100Y-95344550D03*
X238625100Y-95344550D03*
X251325100Y-95344550D03*
%TD*%
D15*
%TO.C,C3*%
X231250000Y-125500000D03*
X238750000Y-125500000D03*
%TD*%
D29*
%TO.C,ESP32*%
X200620000Y-96391250D03*
X200620000Y-93851250D03*
X200620000Y-91311250D03*
X200620000Y-88771250D03*
X200620000Y-86231250D03*
X200620000Y-83691250D03*
X200620000Y-81151250D03*
X200620000Y-78611250D03*
X200620000Y-76071250D03*
X200620000Y-73531250D03*
X200620000Y-70991250D03*
X200620000Y-68451250D03*
X200620000Y-65911250D03*
X200620000Y-63371250D03*
X200620000Y-60831250D03*
X175370000Y-60831250D03*
X175370000Y-63371250D03*
X175370000Y-65911250D03*
X175370000Y-68451250D03*
X175370000Y-70991250D03*
X175370000Y-73531250D03*
X175370000Y-76071250D03*
X175370000Y-78611250D03*
X175370000Y-81151250D03*
X175370000Y-83691250D03*
X175370000Y-86231250D03*
X175370000Y-88771250D03*
X175370000Y-91311250D03*
X175370000Y-93851250D03*
X175370000Y-96391250D03*
%TD*%
D11*
%TO.C,TC2*%
X219440000Y-126998750D03*
D10*
X224440000Y-126998750D03*
%TD*%
D30*
%TO.C,C1*%
X247000000Y-129297291D03*
D31*
X247000000Y-134297291D03*
%TD*%
D14*
%TO.C,D8*%
X142825000Y-128106250D03*
D13*
X145365000Y-128106250D03*
%TD*%
D19*
%TO.C,U4*%
X140050000Y-58441250D03*
X140050000Y-60941250D03*
X140050000Y-63441250D03*
X140050000Y-65941250D03*
X140050000Y-68441250D03*
D32*
X140050000Y-70941250D03*
%TD*%
D12*
%TO.C,R9*%
X148545000Y-122795000D03*
X148545000Y-130415000D03*
%TD*%
D33*
%TO.C,BZ1*%
X99000000Y-79500000D03*
D34*
X99000000Y-88000000D03*
%TD*%
D28*
%TO.C,MS1*%
X215200000Y-95321250D03*
X222820000Y-95321250D03*
X210120000Y-95321250D03*
X220280000Y-95321250D03*
X217740000Y-95321250D03*
X212660000Y-95321250D03*
X225360000Y-95321250D03*
%TD*%
D16*
%TO.C,D7*%
X143700000Y-122571250D03*
D15*
X143700000Y-114951250D03*
%TD*%
D11*
%TO.C,TC4*%
X175460000Y-127000000D03*
D10*
X180460000Y-127000000D03*
%TD*%
D12*
%TO.C,R4*%
X170660000Y-112920000D03*
X170660000Y-120540000D03*
%TD*%
D35*
%TO.C,TC1*%
X248910000Y-116051250D03*
D10*
X248910000Y-111051250D03*
%TD*%
D20*
%TO.C,REF\u002A\u002A*%
X256000000Y-54000000D03*
%TD*%
D18*
%TO.C,U8*%
X232495000Y-117791250D03*
D17*
X235035000Y-117791250D03*
X237575000Y-117791250D03*
%TD*%
D19*
%TO.C,U7*%
X251273000Y-75136250D03*
X248733000Y-75136250D03*
X246193000Y-75136250D03*
X243653000Y-75136250D03*
X241113000Y-75136250D03*
X238573000Y-75136250D03*
X236033000Y-75136250D03*
X233493000Y-75136250D03*
%TD*%
D34*
%TO.C,SW1*%
X251240000Y-122051250D03*
X247740000Y-122051250D03*
%TD*%
D12*
%TO.C,R5*%
X214640000Y-112918750D03*
X214640000Y-120538750D03*
%TD*%
D16*
%TO.C,D3*%
X209700000Y-122571250D03*
D15*
X209700000Y-114951250D03*
%TD*%
D36*
%TO.C,U2*%
X149710000Y-93061250D03*
X149710000Y-95601250D03*
X149710000Y-90521250D03*
X149710000Y-85441250D03*
X149710000Y-98141250D03*
X149710000Y-72741250D03*
X149710000Y-60041250D03*
X167490000Y-98141250D03*
X167490000Y-85441250D03*
X167490000Y-72741250D03*
X167490000Y-60041250D03*
X167490000Y-103221250D03*
X167490000Y-100681250D03*
X167490000Y-95601250D03*
X167490000Y-93061250D03*
X167490000Y-90521250D03*
X167490000Y-87981250D03*
X167490000Y-82901250D03*
X167490000Y-80361250D03*
X167490000Y-77821250D03*
X167490000Y-75281250D03*
X167490000Y-70201250D03*
X167490000Y-67661250D03*
X167490000Y-65121250D03*
X167490000Y-62581250D03*
X167490000Y-57501250D03*
X167490000Y-54961250D03*
X149710000Y-54961250D03*
X149710000Y-57501250D03*
X149710000Y-62581250D03*
X149710000Y-65121250D03*
X149710000Y-67661250D03*
X149710000Y-70201250D03*
X149710000Y-75281250D03*
X149710000Y-80361250D03*
X149710000Y-82901250D03*
X149710000Y-87981250D03*
X149710000Y-77821250D03*
X149710000Y-103221250D03*
X149710000Y-100681250D03*
%TD*%
M02*
